<?xml version="1.0" standalone="no"?>
<!DOCTYPE svg PUBLIC "-//W3C//DTD SVG 20010904//EN"
 "http://www.w3.org/TR/2001/REC-SVG-20010904/DTD/svg10.dtd">
<svg version="1.0" xmlns="http://www.w3.org/2000/svg"
 width="512.000000pt" height="512.000000pt" viewBox="0 0 512.000000 512.000000"
 preserveAspectRatio="xMidYMid meet">
<metadata>
Created by potrace 1.14, written by Peter Selinger 2001-2017
</metadata>
<g transform="translate(0.000000,512.000000) scale(0.100000,-0.100000)"
fill="#000000" stroke="none">
<path d="M2368 5116 c-1 -2 -37 -7 -77 -10 -41 -4 -78 -9 -81 -11 -3 -2 -33
-7 -65 -10 -109 -13 -389 -87 -490 -130 -29 -12 -65 -25 -75 -27 -3 -1 -40
-18 -82 -40 -42 -21 -80 -38 -84 -38 -4 0 -29 -13 -55 -30 -27 -16 -49 -26
-49 -22 0 4 -4 2 -8 -4 -4 -6 -30 -24 -58 -40 -204 -116 -459 -329 -614 -513
-25 -30 -50 -59 -56 -65 -42 -45 -214 -296 -214 -314 0 -6 -4 -12 -9 -14 -11
-3 -116 -211 -156 -307 -43 -104 -92 -250 -110 -331 -2 -8 -8 -30 -14 -48 -5
-18 -10 -33 -9 -35 0 -2 -5 -31 -25 -137 -26 -134 -32 -219 -31 -440 0 -184 3
-241 19 -345 3 -16 7 -43 9 -60 7 -45 25 -134 36 -174 5 -20 11 -45 13 -56 7
-41 60 -203 97 -295 150 -375 379 -704 675 -970 107 -96 297 -234 420 -305 79
-45 263 -135 279 -135 7 0 19 -7 26 -15 6 -8 15 -14 18 -13 4 0 9 -1 12 -2 3
-1 12 -3 20 -6 17 -4 155 -53 155 -55 0 -3 255 -67 288 -72 18 -3 46 -8 62
-11 120 -23 222 -30 420 -31 231 0 299 6 505 46 58 12 115 23 128 25 47 9 320
103 387 134 310 140 560 310 792 537 35 34 63 66 63 72 0 5 8 12 18 15 9 3 27
21 39 38 12 18 33 44 45 58 64 69 207 276 256 370 67 127 113 222 137 280 56
138 121 350 140 459 3 19 7 37 9 40 3 5 9 42 22 131 20 146 26 454 12 600 -47
468 -224 922 -507 1295 -25 33 -50 65 -56 71 -5 6 -26 30 -45 54 -163 196
-448 429 -685 560 -73 41 -253 130 -261 130 -3 0 -20 6 -37 14 -137 62 -421
138 -607 162 -25 3 -56 8 -70 11 -28 5 -466 13 -472 9z"/>
</g>
</svg>
